<mxfile host="65bd71144e">
    <diagram id="JsNgYXsdprn1dvn0PYIM" name="Page-1">
        <mxGraphModel dx="1118" dy="807" grid="0" gridSize="10" guides="1" tooltips="1" connect="1" arrows="1" fold="1" page="1" pageScale="1" pageWidth="827" pageHeight="1169" math="0" shadow="0">
            <root>
                <mxCell id="0"/>
                <mxCell id="1" parent="0"/>
                <mxCell id="9" value="Domain" style="shape=module;align=left;spacingLeft=20;align=center;verticalAlign=top;" parent="1" vertex="1">
                    <mxGeometry x="200" y="80" width="380" height="190" as="geometry"/>
                </mxCell>
                <mxCell id="8" value="Application" style="shape=module;align=left;spacingLeft=20;align=center;verticalAlign=top;" parent="1" vertex="1">
                    <mxGeometry x="214" y="145" width="196" height="120" as="geometry"/>
                </mxCell>
                <mxCell id="10" value="Infrastructure" style="shape=module;align=left;spacingLeft=20;align=center;verticalAlign=top;" parent="1" vertex="1">
                    <mxGeometry x="597" y="160" width="230" height="110" as="geometry"/>
                </mxCell>
                <mxCell id="7" value="Api" style="shape=module;align=left;spacingLeft=20;align=center;verticalAlign=top;" parent="1" vertex="1">
                    <mxGeometry y="145" width="180" height="120" as="geometry"/>
                </mxCell>
                <mxCell id="20" style="edgeStyle=orthogonalEdgeStyle;rounded=0;orthogonalLoop=1;jettySize=auto;html=1;exitX=0;exitY=0.5;exitDx=0;exitDy=0;endArrow=oval;endFill=0;strokeWidth=3;fillColor=#b0e3e6;strokeColor=#0e8088;" parent="1" source="2" edge="1">
                    <mxGeometry relative="1" as="geometry">
                        <mxPoint x="430" y="235" as="targetPoint"/>
                    </mxGeometry>
                </mxCell>
                <mxCell id="2" value="«interface»&lt;br&gt;&lt;b&gt;Service&lt;/b&gt;" style="html=1;" parent="1" vertex="1">
                    <mxGeometry x="460" y="210" width="110" height="50" as="geometry"/>
                </mxCell>
                <mxCell id="12" style="edgeStyle=orthogonalEdgeStyle;rounded=0;orthogonalLoop=1;jettySize=auto;html=1;exitX=1;exitY=0.5;exitDx=0;exitDy=0;strokeWidth=3;endArrow=halfCircle;endFill=0;fillColor=#b0e3e6;strokeColor=#0e8088;" parent="1" source="3" edge="1">
                    <mxGeometry relative="1" as="geometry">
                        <mxPoint x="230" y="235" as="targetPoint"/>
                    </mxGeometry>
                </mxCell>
                <mxCell id="3" value="Controller" style="html=1;" parent="1" vertex="1">
                    <mxGeometry x="60" y="210" width="110" height="50" as="geometry"/>
                </mxCell>
                <mxCell id="21" style="edgeStyle=orthogonalEdgeStyle;rounded=0;orthogonalLoop=1;jettySize=auto;html=1;exitX=0;exitY=0.5;exitDx=0;exitDy=0;entryX=1;entryY=0.5;entryDx=0;entryDy=0;endArrow=blockThin;endFill=0;strokeWidth=2;dashed=1;dashPattern=1 1;fillColor=#b0e3e6;strokeColor=#0e8088;" parent="1" source="5" target="2" edge="1">
                    <mxGeometry relative="1" as="geometry"/>
                </mxCell>
                <mxCell id="5" value="Concrete Service" style="html=1;" parent="1" vertex="1">
                    <mxGeometry x="610" y="210" width="110" height="50" as="geometry"/>
                </mxCell>
                <mxCell id="13" style="edgeStyle=orthogonalEdgeStyle;rounded=0;orthogonalLoop=1;jettySize=auto;html=1;exitX=0;exitY=0.5;exitDx=0;exitDy=0;endArrow=oval;endFill=0;strokeWidth=3;fillColor=#b0e3e6;strokeColor=#0e8088;" parent="1" source="6" edge="1">
                    <mxGeometry relative="1" as="geometry">
                        <mxPoint x="230" y="235" as="targetPoint"/>
                    </mxGeometry>
                </mxCell>
                <mxCell id="6" value="Handler" style="html=1;" parent="1" vertex="1">
                    <mxGeometry x="290" y="210" width="110" height="50" as="geometry"/>
                </mxCell>
                <mxCell id="18" style="edgeStyle=orthogonalEdgeStyle;rounded=0;orthogonalLoop=1;jettySize=auto;html=1;exitX=1;exitY=0.5;exitDx=0;exitDy=0;strokeWidth=3;endArrow=halfCircle;endFill=0;fillColor=#b0e3e6;strokeColor=#0e8088;" parent="1" source="6" edge="1">
                    <mxGeometry relative="1" as="geometry">
                        <mxPoint x="180" y="245" as="sourcePoint"/>
                        <mxPoint x="430" y="235" as="targetPoint"/>
                    </mxGeometry>
                </mxCell>
            </root>
        </mxGraphModel>
    </diagram>
</mxfile>